<svg id="Layer_1" data-name="Layer 1" xmlns="http://www.w3.org/2000/svg" width="349.46" height="111.87" viewBox="0 0 349.46 111.87"><title>Caudalie logo - Brandlogos.net</title><path d="M348.34,429.83h-3.19v9.91h1.75v-3.61H348c2.24,0,3.65-1.14,3.65-3.11A3,3,0,0,0,348.34,429.83Zm-.23,4.6H346.9v-2.89h1.37c1,0,1.56.49,1.56,1.41S349.21,434.43,348.11,434.43Z" transform="translate(-209.27 -328.07)" style="fill:#3b2331"/><path d="M366.19,429.72l-4.52,10h2l.76-1.78h4l.8,1.78h2l-4.52-10Zm-1.1,6.65,1.33-3.23,1.37,3.23Z" transform="translate(-209.27 -328.07)" style="fill:#3b2331"/><path d="M389.73,437.24l-.53-.84a3.64,3.64,0,0,0-1.22-1.29,2.3,2.3,0,0,0,1.67-2.32c0-2-1.29-3-3.49-3h-2.92v9.91H385v-3.91h.68a1.66,1.66,0,0,1,1.75,1l1,1.59c.3.46.68,1,.91,1.29l.08.08h2.28l-.3-.38A21.42,21.42,0,0,1,389.73,437.24Zm-3.61-3.08H385V431.5h1.14c1.41,0,1.75.61,1.75,1.29S387.49,434.16,386.13,434.16Z" transform="translate(-209.27 -328.07)" style="fill:#3b2331"/><rect x="193.79" y="101.77" width="1.75" height="9.91" style="fill:#3b2331"/><path d="M420.61,433.78l-.57-.19c-.87-.3-1.06-.68-1.06-1.14,0-.61.49-1,1.29-1a4.19,4.19,0,0,1,2.2.61l.3.15v-1.94l-.15,0a6.24,6.24,0,0,0-2.39-.46,2.82,2.82,0,0,0-3,2.7c0,1.33.72,2.2,2.24,2.77l.65.23c1.18.42,1.41.87,1.41,1.48,0,.76-.53,1.22-1.48,1.22a4.58,4.58,0,0,1-2.51-.76l-.34-.19v2l.11.08a6,6,0,0,0,2.7.61,3,3,0,0,0,3.27-2.92C423.31,435.42,422.47,434.47,420.61,433.78Z" transform="translate(-209.27 -328.07)" style="fill:#3b2331"/><path d="M513,350.16l.61-1.71h-10.9l.72,1.75c.72,1.75.68,4.14.68,6.87v43.52c0,2.77,0,5.13-.68,6.95l-.68,1.75h10.86l-.61-1.71c-.72-2.05-.72-4.75-.72-7.94v-41.7C512.36,354.79,512.36,352.13,513,350.16Z" transform="translate(-209.27 -328.07)" style="fill:#3b2331"/><path d="M556.41,402.57a22.61,22.61,0,0,1-8,1.44H532.87V376.78h18.91l1.75-5H532.87V353.61h13.48a16.79,16.79,0,0,1,7.1,1.22l2.58,1.06-1.44-7.44H523.18l.68,1.71c.72,1.94.72,4.63.72,7.79v41.74c0,4.82,0,5.85-.72,7.9l-.61,1.71h33.53l1.94-7.63Z" transform="translate(-209.27 -328.07)" style="fill:#3b2331"/><path d="M366.46,356.43l0,1.52v41.7c0,4.82,0,5.89-.65,7.94l-.57,1.71h20.2c18,0,28.1-15.91,28.1-31.29,0-16.29-11.43-29.55-29.58-29.55H365.16l.68,1.78C366.53,351.79,366.49,354,366.46,356.43Zm7.9-2.85h8.32c12.91,0,22.41,11.62,22.41,27.65,0,11.35-5.77,22.82-19.94,22.82H374.35Z" transform="translate(-209.27 -328.07)" style="fill:#3b2331"/><path d="M352.56,348.45h-1.71l.72,1.78a16.19,16.19,0,0,1,.65,5.2v31.63c0,9.91-7.14,16.75-15.68,16.75-8.39,0-15-6.68-15-16.75V357a22.43,22.43,0,0,1,.61-6.8l.57-1.71H312.34l.57,1.71c.61,1.71.57,4.06.57,6.8v30.38c0,13.9,9.76,23.28,21.84,23.28S357,401.12,357,387.22V355.44a18.33,18.33,0,0,1,.57-5.24l.61-1.75h-5.62Z" transform="translate(-209.27 -328.07)" style="fill:#3b2331"/><path d="M287.35,347.35H285.6s-16,38.74-20.92,51.8a35.7,35.7,0,0,1-6.15,10.1h8.05s4.29-11.05,8.73-22.52h19c4.33,11.47,8.54,22.52,8.54,22.52H314.2a29.54,29.54,0,0,1-6.57-10ZM277.1,382.1c3.68-9.49,7.06-18.19,7.79-19.86.68,1.71,4,10.37,7.6,19.86Z" transform="translate(-209.27 -328.07)" style="fill:#3b2331"/><path d="M488.74,404H476.81V357.72a30.46,30.46,0,0,1,.53-7.29c.15-.53.65-2,.65-2H467.13l.65,1.71c.68,1.94.68,4.63.68,7.79v41.7c0,4.86,0,5.89-.68,7.94l-.61,1.71h30l1.94-7.6-2.28.87A20.94,20.94,0,0,1,488.74,404Z" transform="translate(-209.27 -328.07)" style="fill:#3b2331"/><path d="M239.77,404.84c-10.67,0-21.08-11-21.08-28.9,0-13.41,8.05-23.39,21.08-23.39,7.82,0,14,5.35,18.27,13.79l-.8-13.75a30.75,30.75,0,0,0-17.51-5.32c-16.67,0-30.46,15-30.46,32.7,0,17.2,13.6,30.15,30.46,30.15A27.57,27.57,0,0,0,257,403.93l1.63-10.37C253.17,400.93,249.11,404.84,239.77,404.84Z" transform="translate(-209.27 -328.07)" style="fill:#3b2331"/><path d="M458.39,399.3l-20.28-51.91h-1.78l-20.89,51.8a25.94,25.94,0,0,1-4.22,7.56l-1.94,2.58h8.05s4.29-11.05,8.7-22.52h19c4.37,11.47,8.54,22.52,8.54,22.52H465l-2.58-3A23.09,23.09,0,0,1,458.39,399.3Zm-30.46-17.2c3.68-9.49,7.1-18.19,7.75-19.86.68,1.71,4,10.37,7.6,19.86Z" transform="translate(-209.27 -328.07)" style="fill:#3b2331"/><path d="M503.59,341c7.82.72,13.56-5,12.84-12.84C508.56,327.37,502.83,333.15,503.59,341Z" transform="translate(-209.27 -328.07)" style="fill:#3b2331"/></svg>