<?xml version="1.0" encoding="UTF-8"?>
<!DOCTYPE svg PUBLIC "-//W3C//DTD SVG 1.1//EN" "http://www.w3.org/Graphics/SVG/1.1/DTD/svg11.dtd">
<svg xmlns="http://www.w3.org/2000/svg" version="1.1" width="3840px" height="2160px" style="shape-rendering:geometricPrecision; text-rendering:geometricPrecision; image-rendering:optimizeQuality; fill-rule:evenodd; clip-rule:evenodd" xmlns:xlink="http://www.w3.org/1999/xlink">
<g><path style="opacity:1" fill="#000000" d="M 33.5,455.5 C 1291.17,455.5 2548.83,455.5 3806.5,455.5C 3806.5,871.833 3806.5,1288.17 3806.5,1704.5C 2548.83,1704.5 1291.17,1704.5 33.5,1704.5C 33.5,1288.17 33.5,871.833 33.5,455.5 Z"/></g>
<g><path style="opacity:1" fill="#fefefe" d="M 187.5,589.5 C 1346.83,589.5 2506.17,589.5 3665.5,589.5C 3665.5,596.5 3665.5,603.5 3665.5,610.5C 2506.17,610.5 1346.83,610.5 187.5,610.5C 187.5,603.5 187.5,596.5 187.5,589.5 Z"/></g>
<g><path style="opacity:1" fill="#fdfdfd" d="M 502.5,804.5 C 495.352,803.508 488.019,803.175 480.5,803.5C 380.047,807.458 316.214,857.792 289,954.5C 278.814,996.243 275.148,1038.58 278,1081.5C 279.418,1125.92 288.751,1168.59 306,1209.5C 345.431,1290.17 410.264,1328.33 500.5,1324C 543.783,1320.68 583.45,1307.02 619.5,1283C 631.5,1274.33 643.5,1265.67 655.5,1257C 658.714,1254.6 661.214,1255.1 663,1258.5C 663.819,1268.59 662.152,1278.25 658,1287.5C 651.252,1308.45 640.085,1326.62 624.5,1342C 607.108,1352.8 588.108,1359.47 567.5,1362C 510.777,1370.96 454.11,1370.63 397.5,1361C 271.741,1334.91 198.908,1258.41 179,1131.5C 169.442,1066.64 172.108,1002.31 187,938.5C 214.864,836.638 281.031,777.804 385.5,762C 415.078,758.691 444.745,757.691 474.5,759C 495.513,760.138 516.513,761.471 537.5,763C 572.857,767.003 608.191,771.17 643.5,775.5C 645.18,798.274 647.847,820.941 651.5,843.5C 651.991,849.507 649.324,851.674 643.5,850C 625.299,836.486 605.633,825.486 584.5,817C 557.798,808.685 530.464,804.519 502.5,804.5 Z"/></g>
<g><path style="opacity:1" fill="#fdfdfd" d="M 2649.5,1486.5 C 2641.83,1486.5 2634.17,1486.5 2626.5,1486.5C 2610.92,1484.03 2596.26,1478.86 2582.5,1471C 2540.84,1447.84 2499.51,1424.17 2458.5,1400C 2434.61,1386.69 2409.28,1377.02 2382.5,1371C 2353.48,1366.41 2324.48,1361.74 2295.5,1357C 2227.75,1335.91 2178.58,1293.41 2148,1229.5C 2131.1,1190.55 2120.76,1149.89 2117,1107.5C 2111.85,1064.74 2112.52,1022.07 2119,979.5C 2126.6,930.982 2145.6,887.648 2176,849.5C 2216.81,805.004 2267.31,778.17 2327.5,769C 2390.68,759.694 2453.34,762.36 2515.5,777C 2598.76,798.254 2651.59,850.421 2674,933.5C 2683.73,972.723 2688.56,1012.56 2688.5,1053C 2689.06,1095.25 2683.9,1136.75 2673,1177.5C 2655.47,1233.03 2622.63,1277.2 2574.5,1310C 2545.14,1329.18 2514.14,1345.51 2481.5,1359C 2506.98,1364.16 2531.31,1372.49 2554.5,1384C 2561.01,1388.09 2567.34,1392.42 2573.5,1397C 2583.17,1407.33 2592.83,1417.67 2602.5,1428C 2608.5,1432.67 2614.5,1437.33 2620.5,1442C 2635.26,1450.15 2650.93,1456.15 2667.5,1460C 2673.6,1465.26 2674.1,1471.09 2669,1477.5C 2663.48,1482.67 2656.98,1485.67 2649.5,1486.5 Z"/></g>
<g><path style="opacity:1" fill="#fefefe" d="M 835.5,1114.5 C 834.501,1182.33 834.167,1250.33 834.5,1318.5C 844.5,1318.5 854.5,1318.5 864.5,1318.5C 877.201,1318.78 889.868,1319.61 902.5,1321C 923.109,1324.39 943.775,1327.39 964.5,1330C 996.734,1335.98 1024.73,1327.98 1048.5,1306C 1054.38,1298.54 1060.72,1291.54 1067.5,1285C 1070.64,1283.96 1073.14,1284.79 1075,1287.5C 1076.76,1294.46 1076.76,1301.46 1075,1308.5C 1070.11,1326.61 1062.78,1343.61 1053,1359.5C 1049.36,1363.15 1045.19,1365.98 1040.5,1368C 1022.93,1373.49 1004.93,1376.32 986.5,1376.5C 960.448,1375.89 934.448,1374.39 908.5,1372C 849.389,1370.37 790.389,1372.21 731.5,1377.5C 732.967,1337.82 734.801,1298.15 737,1258.5C 737.776,1236.17 738.276,1213.84 738.5,1191.5C 739.498,1158 739.832,1124.34 739.5,1090.5C 738.786,1049.56 737.786,1008.56 736.5,967.5C 736.818,962.968 736.485,958.634 735.5,954.5C 733.367,894.908 728.367,835.575 720.5,776.5C 760.828,775.5 801.161,775.167 841.5,775.5C 837.377,888.46 835.377,1001.46 835.5,1114.5 Z"/></g>
<g><path style="opacity:1" fill="#fdfdfd" d="M 1234.5,775.5 C 1235.45,781.075 1235.79,786.741 1235.5,792.5C 1233.44,865.834 1231.28,939.168 1229,1012.5C 1227.65,1134.22 1229.49,1255.88 1234.5,1377.5C 1199.83,1377.5 1165.17,1377.5 1130.5,1377.5C 1138.18,1254.95 1140.68,1132.29 1138,1009.5C 1135.74,931.363 1131.24,853.363 1124.5,775.5C 1161.17,775.5 1197.83,775.5 1234.5,775.5 Z"/></g>
<g><path style="opacity:1" fill="#b4b4b4" d="M 1234.5,775.5 C 1235.81,777.915 1236.48,780.748 1236.5,784C 1236.5,787.021 1236.16,789.854 1235.5,792.5C 1235.79,786.741 1235.45,781.075 1234.5,775.5 Z"/></g>
<g><path style="opacity:1" fill="#fdfdfd" d="M 1360.5,1163.5 C 1361.5,1114 1361.83,1064.34 1361.5,1014.5C 1361.03,973.526 1359.53,932.526 1357,891.5C 1352.15,852.461 1345.32,813.794 1336.5,775.5C 1372.74,775.17 1408.91,775.504 1445,776.5C 1546.67,915.5 1648.33,1054.5 1750,1193.5C 1756.04,1084.01 1761.88,974.511 1767.5,865C 1767.81,848.564 1765.98,832.398 1762,816.5C 1759.29,810.748 1756.29,805.082 1753,799.5C 1747.36,791.691 1741.53,784.025 1735.5,776.5C 1761.4,775.173 1787.23,775.173 1813,776.5C 1815.32,976.832 1817.49,1177.17 1819.5,1377.5C 1802.16,1377.67 1784.83,1377.5 1767.5,1377C 1652.03,1219.36 1536.36,1061.86 1420.5,904.5C 1415.81,1038.81 1412.31,1173.14 1410,1307.5C 1410.34,1317.52 1412.34,1327.19 1416,1336.5C 1423.99,1350.82 1433.16,1364.32 1443.5,1377C 1414.26,1377.83 1385.09,1377.66 1356,1376.5C 1358.67,1305.55 1360.17,1234.55 1360.5,1163.5 Z"/></g>
<g><path style="opacity:1" fill="#fdfdfd" d="M 1935.5,775.5 C 1972.83,775.5 2010.17,775.5 2047.5,775.5C 2043.57,877.968 2040.91,980.468 2039.5,1083C 2039.7,1129.17 2040.2,1175.34 2041,1221.5C 2042.79,1273.49 2044.29,1325.49 2045.5,1377.5C 2010.83,1377.5 1976.17,1377.5 1941.5,1377.5C 1945.47,1325.58 1947.97,1273.58 1949,1221.5C 1953.18,1072.55 1948.68,923.884 1935.5,775.5 Z"/></g>
<g><path style="opacity:1" fill="#fdfdfd" d="M 3153.5,1123.5 C 3154.49,1113.68 3154.83,1103.68 3154.5,1093.5C 3156.32,1012.5 3157.82,931.501 3159,850.5C 3157.35,838.934 3154.69,827.601 3151,816.5C 3145.52,802.916 3139.35,789.583 3132.5,776.5C 3159.83,775.5 3187.16,775.167 3214.5,775.5C 3214.67,911.5 3214.5,1047.5 3214,1183.5C 3213.67,1218.47 3209,1252.8 3200,1286.5C 3186.76,1330.74 3158.26,1360.24 3114.5,1375C 3080.28,1385.25 3045.28,1390.41 3009.5,1390.5C 2997.83,1390.5 2986.17,1390.5 2974.5,1390.5C 2936.93,1390.68 2900.6,1384.18 2865.5,1371C 2830.36,1355.86 2805.19,1330.69 2790,1295.5C 2780.89,1273.72 2775.22,1251.05 2773,1227.5C 2770.2,1205.75 2769.04,1183.92 2769.5,1162C 2770.14,1129.83 2770.8,1097.66 2771.5,1065.5C 2772.5,1048.01 2772.83,1030.34 2772.5,1012.5C 2771.88,987.204 2770.71,961.871 2769,936.5C 2765,882.813 2760.83,829.146 2756.5,775.5C 2796.17,775.5 2835.83,775.5 2875.5,775.5C 2865.24,899.618 2860.74,1023.95 2862,1148.5C 2862.12,1181.38 2864.79,1214.05 2870,1246.5C 2879.78,1308.62 2915.94,1341.78 2978.5,1346C 3003.89,1347.08 3029.22,1346.41 3054.5,1344C 3092.65,1339.52 3118.49,1319.35 3132,1283.5C 3141.12,1257.57 3146.79,1230.9 3149,1203.5C 3151.71,1176.9 3153.21,1150.23 3153.5,1123.5 Z"/></g>
<g><path style="opacity:1" fill="#cbcbcb" d="M 3651.5,776.5 C 3532,776.167 3412.67,776.5 3293.5,777.5C 3292.96,777.44 3292.62,777.107 3292.5,776.5C 3412.33,775.168 3532,775.168 3651.5,776.5 Z"/></g>
<g><path style="opacity:1" fill="#fdfdfd" d="M 3651.5,776.5 C 3654.75,801.479 3657.58,826.479 3660,851.5C 3648.14,839.83 3634.97,829.996 3620.5,822C 3616.58,821.797 3612.75,821.297 3609,820.5C 3550.21,824.702 3491.38,829.035 3432.5,833.5C 3429.61,833.194 3426.95,833.527 3424.5,834.5C 3417.65,834.162 3411.15,835.162 3405,837.5C 3404.5,902.832 3404.33,968.166 3404.5,1033.5C 3483.17,1033.5 3561.83,1033.5 3640.5,1033.5C 3637.89,1050.14 3637.89,1066.81 3640.5,1083.5C 3561.83,1083.5 3483.17,1083.5 3404.5,1083.5C 3402.46,1157.22 3399.8,1230.89 3396.5,1304.5C 3447.07,1317.03 3498.4,1324.87 3550.5,1328C 3596.38,1333.79 3633.88,1318.96 3663,1283.5C 3664.72,1305.53 3661.72,1326.87 3654,1347.5C 3648.86,1357.48 3641.03,1364.31 3630.5,1368C 3613.74,1372.11 3596.74,1373.44 3579.5,1372C 3548.2,1368.94 3516.87,1366.27 3485.5,1364C 3441.09,1362.73 3396.76,1363.9 3352.5,1367.5C 3349.29,1367.19 3346.29,1367.52 3343.5,1368.5C 3327.42,1369.07 3311.42,1370.4 3295.5,1372.5C 3295.17,1369.83 3294.83,1367.17 3294.5,1364.5C 3300.2,1296.87 3305.37,1229.21 3310,1161.5C 3311.37,1117.51 3311.87,1073.51 3311.5,1029.5C 3311.5,1023.5 3311.5,1017.5 3311.5,1011.5C 3310.4,977.035 3308.73,942.535 3306.5,908C 3302.79,864.429 3298.45,820.929 3293.5,777.5C 3412.67,776.5 3532,776.167 3651.5,776.5 Z"/></g>
<g><path style="opacity:1" fill="#424242" d="M 480.5,803.5 C 488.019,803.175 495.352,803.508 502.5,804.5C 496.379,805.081 490.379,805.414 484.5,805.5C 482.974,805.006 481.641,804.339 480.5,803.5 Z"/></g>
<g><path style="opacity:1" fill="#5f5f5f" d="M 2396.5,804.5 C 2402.36,804.178 2408.02,804.511 2413.5,805.5C 2409.23,805.203 2405.07,805.536 2401,806.5C 2399.38,805.901 2397.88,805.234 2396.5,804.5 Z"/></g>
<g><path style="opacity:1" fill="#000000" d="M 2396.5,804.5 C 2397.88,805.234 2399.38,805.901 2401,806.5C 2405.07,805.536 2409.23,805.203 2413.5,805.5C 2485.84,809.076 2537.34,843.409 2568,908.5C 2579.66,936.442 2587.66,965.442 2592,995.5C 2594.52,1015.15 2596.02,1034.82 2596.5,1054.5C 2595.8,1057.9 2595.14,1061.4 2594.5,1065C 2595.14,1068.6 2595.8,1072.1 2596.5,1075.5C 2595.93,1114.74 2590.76,1153.4 2581,1191.5C 2552.33,1288.63 2487.16,1334.13 2385.5,1328C 2322.46,1322.75 2274.62,1293.25 2242,1239.5C 2217.92,1193.52 2205.25,1144.52 2204,1092.5C 2201.15,1043.31 2206.15,994.972 2219,947.5C 2231.05,905.553 2253.55,870.386 2286.5,842C 2318.95,817.719 2355.62,805.219 2396.5,804.5 Z"/></g>
<g><path style="opacity:1" fill="#515151" d="M 3424.5,834.5 C 3426.95,833.527 3429.61,833.194 3432.5,833.5C 3431.47,834.249 3430.3,834.915 3429,835.5C 3427.64,834.62 3426.14,834.286 3424.5,834.5 Z"/></g>
<g><path style="opacity:1" fill="#515151" d="M 735.5,954.5 C 736.485,958.634 736.818,962.968 736.5,967.5C 735.766,966.122 735.099,964.622 734.5,963C 735.444,960.281 735.777,957.448 735.5,954.5 Z"/></g>
<g><path style="opacity:1" fill="#3e3e3e" d="M 3311.5,1011.5 C 3311.5,1017.5 3311.5,1023.5 3311.5,1029.5C 3310.81,1024.77 3310.14,1019.93 3309.5,1015C 3310.08,1013.7 3310.75,1012.53 3311.5,1011.5 Z"/></g>
<g><path style="opacity:1" fill="#4a4a4a" d="M 1361.5,1014.5 C 1361.83,1064.34 1361.5,1114 1360.5,1163.5C 1360.82,1151.25 1360.49,1139.09 1359.5,1127C 1360.16,1089.4 1360.83,1051.9 1361.5,1014.5 Z"/></g>
<g><path style="opacity:1" fill="#5c5c5c" d="M 2772.5,1012.5 C 2772.83,1030.34 2772.5,1048.01 2771.5,1065.5C 2771.67,1052.79 2771.33,1040.62 2770.5,1029C 2771.15,1023.4 2771.81,1017.9 2772.5,1012.5 Z"/></g>
<g><path style="opacity:1" fill="#575757" d="M 2596.5,1054.5 C 2596.5,1061.5 2596.5,1068.5 2596.5,1075.5C 2595.8,1072.1 2595.14,1068.6 2594.5,1065C 2595.14,1061.4 2595.8,1057.9 2596.5,1054.5 Z"/></g>
<g><path style="opacity:1" fill="#505050" d="M 3154.5,1093.5 C 3154.83,1103.68 3154.49,1113.68 3153.5,1123.5C 3152.5,1113.44 3152.84,1103.44 3154.5,1093.5 Z"/></g>
<g><path style="opacity:1" fill="#484848" d="M 739.5,1090.5 C 739.832,1124.34 739.498,1158 738.5,1191.5C 738.602,1161.49 738.269,1131.32 737.5,1101C 738.135,1097.4 738.802,1093.9 739.5,1090.5 Z"/></g>
<g><path style="opacity:1" fill="#b9b9b9" d="M 835.5,1114.5 C 835.5,1182.17 835.5,1249.83 835.5,1317.5C 845.348,1317.17 855.014,1317.51 864.5,1318.5C 854.5,1318.5 844.5,1318.5 834.5,1318.5C 834.167,1250.33 834.501,1182.33 835.5,1114.5 Z"/></g>
<g><path style="opacity:1" fill="#535353" d="M 3343.5,1368.5 C 3346.29,1367.52 3349.29,1367.19 3352.5,1367.5C 3351.47,1368.25 3350.3,1368.92 3349,1369.5C 3347.3,1368.59 3345.47,1368.26 3343.5,1368.5 Z"/></g>
<g><path style="opacity:1" fill="#4a4a4a" d="M 2974.5,1390.5 C 2986.17,1390.5 2997.83,1390.5 3009.5,1390.5C 3006.44,1391.2 3003.27,1391.87 3000,1392.5C 2994,1391.17 2988,1391.17 2982,1392.5C 2979.39,1391.88 2976.89,1391.21 2974.5,1390.5 Z"/></g>
<g><path style="opacity:1" fill="#4a4a4a" d="M 2626.5,1486.5 C 2634.17,1486.5 2641.83,1486.5 2649.5,1486.5C 2648.12,1487.23 2646.62,1487.9 2645,1488.5C 2640.67,1487.17 2636.33,1487.17 2632,1488.5C 2630.05,1487.89 2628.22,1487.22 2626.5,1486.5 Z"/></g>
<g><path style="opacity:1" fill="#fefefe" d="M 187.5,1548.5 C 1346.83,1548.5 2506.17,1548.5 3665.5,1548.5C 3665.5,1555.5 3665.5,1562.5 3665.5,1569.5C 2506.17,1569.5 1346.83,1569.5 187.5,1569.5C 187.5,1562.5 187.5,1555.5 187.5,1548.5 Z"/></g>
</svg>
