<?xml version="1.0" encoding="UTF-8"?>
<!DOCTYPE svg PUBLIC "-//W3C//DTD SVG 1.1//EN" "http://www.w3.org/Graphics/SVG/1.1/DTD/svg11.dtd">
<svg xmlns="http://www.w3.org/2000/svg" version="1.1" width="1200px" height="675px" style="shape-rendering:geometricPrecision; text-rendering:geometricPrecision; image-rendering:optimizeQuality; fill-rule:evenodd; clip-rule:evenodd" xmlns:xlink="http://www.w3.org/1999/xlink">
<g><path style="opacity:0.886" fill="#000000" d="M 961.5,101.5 C 990.533,99.8148 1018.87,101.981 1046.5,108C 1100.34,121.835 1132.5,156.002 1143,210.5C 1144.69,220.429 1145.53,230.429 1145.5,240.5C 1140.73,241.365 1136.07,241.365 1131.5,240.5C 1127.5,165.005 1088,124.338 1013,118.5C 971.453,112.759 931.62,118.926 893.5,137C 909.389,148.579 920.556,163.746 927,182.5C 935.601,212.854 935.601,243.188 927,273.5C 922.594,283.316 917.428,292.65 911.5,301.5C 922.343,305.461 933.343,308.961 944.5,312C 990.611,321.944 1036.28,333.611 1081.5,347C 1088.05,350.186 1094.72,353.186 1101.5,356C 1131.91,372.09 1149.41,397.257 1154,431.5C 1159.89,479.198 1143.39,516.698 1104.5,544C 1077.51,560.666 1048.34,569.833 1017,571.5C 1011.67,572.167 1006.33,572.833 1001,573.5C 995,573.5 989,573.5 983,573.5C 950.617,572.072 919.451,564.238 889.5,550C 852.689,528.931 830.189,497.431 822,455.5C 819.52,440.924 818.52,426.257 819,411.5C 823.142,410.534 827.642,410.367 832.5,411C 832.959,435.25 837.459,458.75 846,481.5C 860.445,512.614 883.778,533.947 916,545.5C 913.765,520.726 911.932,495.892 910.5,471C 911.057,461.665 911.057,450.999 910.5,439C 906.569,385.067 877.736,356.9 824,354.5C 819.251,353.695 814.418,353.195 809.5,353C 748.501,352.5 687.501,352.333 626.5,352.5C 626.333,370.836 626.5,389.17 627,407.5C 642.816,449.118 659.149,490.451 676,531.5C 680.09,541.67 683.59,552.003 686.5,562.5C 681.238,562.805 676.072,562.471 671,561.5C 656.296,524.814 641.629,488.147 627,451.5C 626.667,487.833 626.333,524.167 626,560.5C 623.787,561.76 621.287,562.426 618.5,562.5C 615.911,562.473 613.411,562.139 611,561.5C 610.792,512.939 610.625,464.439 610.5,416C 535.501,415.5 460.501,415.333 385.5,415.5C 385.5,464.5 385.5,513.5 385.5,562.5C 378.825,562.666 372.158,562.5 365.5,562C 356.632,550.431 348.132,538.598 340,526.5C 335.184,538.136 330.351,549.803 325.5,561.5C 319.946,562.806 314.446,562.806 309,561.5C 314.909,545.798 321.242,530.131 328,514.5C 328.667,512.833 328.667,511.167 328,509.5C 238.324,383.472 148.658,257.472 59,131.5C 58.5,275.166 58.3333,418.833 58.5,562.5C 53.8333,562.5 49.1667,562.5 44.5,562.5C 44.5,412.167 44.5,261.833 44.5,111.5C 51.175,111.334 57.8417,111.5 64.5,112C 155.388,239.222 245.888,366.722 336,494.5C 347.416,466.665 358.749,438.332 370,409.5C 370.333,310.5 370.667,211.5 371,112.5C 375.737,111.531 380.57,111.197 385.5,111.5C 385.333,198.501 385.5,285.501 386,372.5C 420.872,285.75 456.039,199.083 491.5,112.5C 494.5,112.167 497.5,111.833 500.5,111.5C 503.939,111.554 507.106,112.22 510,113.5C 543.352,198.197 576.685,282.863 610,367.5C 610.173,348.593 610.673,329.76 611.5,311C 611.146,253.843 611.146,187.509 611.5,112C 678.426,111.529 744.592,111.362 810,111.5C 823.884,113.008 837.717,115.175 851.5,118C 861.019,120.173 870.186,123.34 879,127.5C 903.734,112.702 930.567,104.535 959.5,103C 960.416,102.722 961.082,102.222 961.5,101.5 Z M 500.5,127.5 C 536.005,218.408 571.005,309.074 605.5,399.5C 534.164,399.833 462.83,399.5 391.5,398.5C 427.662,307.995 463.995,217.662 500.5,127.5 Z M 626.5,127.5 C 689.834,127.333 753.168,127.5 816.5,128C 833.385,128.91 849.719,132.244 865.5,138C 851.298,150.574 841.465,166.074 836,184.5C 827.717,216.909 831.717,247.576 848,276.5C 858.322,289.067 870.489,299.401 884.5,307.5C 862.279,325.211 837.113,334.544 809,335.5C 804.92,336.3 800.753,336.8 796.5,337C 739.834,337.5 683.168,337.667 626.5,337.5C 626.5,267.5 626.5,197.5 626.5,127.5 Z M 880.5,145.5 C 903.088,161.666 915.588,183.666 918,211.5C 921.577,238.616 916.577,263.949 903,287.5C 901.039,290.463 898.706,293.129 896,295.5C 857.507,275.516 841.507,243.849 848,200.5C 852.203,178.071 863.037,159.738 880.5,145.5 Z M 898.5,314.5 C 940.788,327.613 983.455,338.28 1026.5,346.5C 1052.09,351.865 1076.43,360.698 1099.5,373C 1126.78,391.219 1140.45,416.886 1140.5,450C 1137.78,495.09 1115.45,526.09 1073.5,543C 1047.57,553.35 1020.57,558.183 992.5,557.5C 972.511,557.71 952.844,555.376 933.5,550.5C 932.031,547.702 931.198,544.702 931,541.5C 930.153,535.186 929.487,528.853 929,522.5C 927.735,491.31 926.068,459.976 924,428.5C 922.696,399.383 910.529,376.217 887.5,359C 873.347,352.062 858.68,346.729 843.5,343C 864.42,338.209 882.754,328.709 898.5,314.5 Z M 369.5,452.5 C 370.664,482.331 370.831,512.331 370,542.5C 362.167,531.5 354.333,520.5 346.5,509.5C 354.378,490.522 362.044,471.522 369.5,452.5 Z"/></g>
</svg>
