<?xml version="1.0" encoding="utf-8"?>
<!-- Generator: Adobe Illustrator 25.0.1, SVG Export Plug-In . SVG Version: 6.00 Build 0)  -->
<svg version="1.0" id="Layer_1" xmlns="http://www.w3.org/2000/svg" xmlns:xlink="http://www.w3.org/1999/xlink" x="0px" y="0px"
	 viewBox="0 0 240.9 153.5" style="enable-background:new 0 0 240.9 153.5;" xml:space="preserve">
<style type="text/css">
	.st0{fill:none;}
</style>
<path d="M54.2,50.6H56c14.4,0.6,25.7,12.7,25.1,27.2c-0.5,13.6-11.5,24.6-25.1,25.1h-1.9C40.5,102.4,29.5,91.4,29,77.7v-1.9
	C29.5,62.1,40.5,51.1,54.2,50.6 M50.8,55.2c-6.5,1.3-12,5.4-15.1,11.2c-1.8,3.3-2.6,7-2.6,10.7c0.1,6,2.7,11.7,7.1,15.8
	c0-6.2,0-12.5,0-18.7c0-3.6,1.7-7,4.6-9.1c4.7-3.2,12-1.9,14.9,3.1c2.1,3.3,1.6,7.3,1.6,11.1c0.1,0.8-0.3,1.6-0.9,2.1
	c-1,0.6-2.3,0.4-2.9-0.6c-0.1-0.1-0.2-0.3-0.2-0.5c-0.5-3.2,0.6-6.8-1.1-9.8c-1.8-3.5-7.3-4-9.9-1.1c-1.2,1.4-1.9,3.3-1.8,5.2
	c0,7.1,0,14.2,0,21.3c10.6,5.9,23.9,2.1,29.8-8.5c4.9-8.9,3.1-20.1-4.5-26.9c0,6.3,0,12.5,0,18.8c0.1,3.5-1.5,6.8-4.3,9
	c-3.7,2.5-8.5,2.6-12.3,0.2c-2-1.4-3.4-3.4-4-5.7c-0.8-2.5-0.4-5.2-0.5-7.8c0-0.9-0.1-1.9,0.6-2.6c0.8-0.8,2.2-0.9,3,0
	c0.2,0.2,0.3,0.4,0.4,0.6c0.7,3.3-0.6,6.9,1.1,10c1.8,3.7,7.7,4.1,10.2,1c1.1-1.4,1.6-3.2,1.5-4.9c0-7.1,0-14.3,0-21.4
	C61.1,55.1,55.9,54.2,50.8,55.2 M99.1,68.4c4.6-4.5,12-4.5,16.5,0.1c2.2,2.4,3.4,5.7,3.2,8.9c0,3.8,0,7.6,0,11.3c-1.7,0-3.5,0-5.2,0
	V77.4c0.1-1.8-0.5-3.6-1.5-5c-2.3-2.6-6.2-2.8-8.8-0.6c-1.4,1.4-2.2,3.3-2.2,5.3c0,3.9,0,7.8,0,11.7c-1.8,0-3.5,0-5.2,0
	c0-3.9,0-7.8,0-11.7C95.8,73.9,97,70.8,99.1,68.4 M132.4,65.3c6.6-1.2,12.9,3.2,14.1,9.8c1.2,6.6-3.2,12.9-9.8,14.1
	c-6.6,1.2-12.9-3.2-14.1-9.8c-0.1-0.8-0.2-1.6-0.2-2.4C122.5,71.3,126.6,66.4,132.4,65.3 M132.7,70.4c-3.8,1-6,4.9-5,8.7
	s4.9,6,8.7,5c3.7-1,6-4.8,5.1-8.6C140.5,71.7,136.6,69.4,132.7,70.4C132.8,70.4,132.7,70.4,132.7,70.4 M165.9,66.2
	c3.1-0.9,6.4-1.2,9.6-0.9c2.7,0.1,5.4,0.5,8,1.2c0,1.7,0,3.3,0,5c-3.4-0.9-6.9-1.4-10.4-1.4c-2,0-4.2-0.1-6,0.9
	c-0.9,0.5-1.2,1.6-0.7,2.5c0.2,0.3,0.5,0.6,0.8,0.7c2.2,0.8,4.6,0.7,7,0.9c2.8,0.3,5.7,0.6,8,2.2c3,2.2,2.5,7.3-0.4,9.4
	c-2.7,2-6.1,2.3-9.4,2.4c-3.8,0.1-7.6-0.3-11.3-1.3c0-1.6,0-3.2,0-4.8c4.3,1,8.7,1.4,13.1,1.2c1.3,0,2.6-0.4,3.8-1
	c0.8-0.5,1-1.5,0.6-2.3c-0.2-0.3-0.5-0.5-0.8-0.7c-2.4-0.8-5.1-0.6-7.6-1c-2.8-0.4-5.9-1-8-3c-1.6-1.6-1.6-4.2-0.9-6.2
	C162.2,68.2,163.9,66.8,165.9,66.2 M150.7,65.6c1.8,0,3.5,0,5.2,0c0,7.7,0,15.5,0,23.2c-1.8,0-3.5,0-5.2,0
	C150.7,81.1,150.7,73.3,150.7,65.6 M190.1,68.2c2-2,5-2.7,7.8-2.7c4.7,0,9.4,0,14.2,0v4.8h-14.3c-1.5-0.1-2.9,0.3-4.2,1.1
	c-1,0.8-1.1,2.2-1.3,3.4c6.5,0,13.1,0,19.6,0v4.7h-19.6c0,1.3,0.5,2.5,1.4,3.5c1.1,0.8,2.4,1.2,3.7,1.1H212v4.9c-5,0-9.9,0-14.9,0
	c-2.9-0.1-6-1-7.7-3.5c-2-2.7-2.1-6.2-2-9.4C187.5,73.2,188.1,70.3,190.1,68.2L190.1,68.2z"/>
<rect x="22.9" y="45.5" class="st0" width="195.1" height="62.5"/>
</svg>
