<?xml version="1.0" encoding="UTF-8"?>
<!DOCTYPE svg PUBLIC "-//W3C//DTD SVG 1.1//EN" "http://www.w3.org/Graphics/SVG/1.1/DTD/svg11.dtd">
<svg xmlns="http://www.w3.org/2000/svg" version="1.1" width="3570px" height="2000px" style="shape-rendering:geometricPrecision; text-rendering:geometricPrecision; image-rendering:optimizeQuality; fill-rule:evenodd; clip-rule:evenodd" xmlns:xlink="http://www.w3.org/1999/xlink">
<g><path style="opacity:0.988" fill="#000000" d="M 124.5,624.5 C 155.294,622.941 185.294,627.774 214.5,639C 256.149,658.867 276.816,692.034 276.5,738.5C 250.5,738.5 224.5,738.5 198.5,738.5C 198.198,708.031 182.864,691.531 152.5,689C 135.196,686.236 118.863,688.903 103.5,697C 90.0087,707.439 86.5087,720.606 93,736.5C 97.0374,741.102 101.871,744.602 107.5,747C 119.625,751.597 131.959,755.597 144.5,759C 170.391,765.223 196.058,772.223 221.5,780C 273.084,801.658 293.917,840.158 284,895.5C 274.115,931.054 251.949,955.554 217.5,969C 166.329,986.744 115.996,985.411 66.5,965C 21.3278,942.492 -0.672211,905.992 0.5,855.5C 26.1667,855.5 51.8333,855.5 77.5,855.5C 76.4079,886.237 90.7412,905.404 120.5,913C 142.548,917.366 164.214,916.033 185.5,909C 204.19,901.12 211.356,887.287 207,867.5C 203.667,860.659 198.834,855.159 192.5,851C 183.238,846.024 173.571,842.024 163.5,839C 134.116,832.39 105.116,824.39 76.5,815C 26.3821,796.271 5.5488,760.438 14,707.5C 22.2451,673.246 42.7451,649.413 75.5,636C 91.4071,629.771 107.74,625.938 124.5,624.5 Z"/></g>
<g><path style="opacity:0.991" fill="#000000" d="M 406.5,631.5 C 433.5,631.5 460.5,631.5 487.5,631.5C 528.763,744.285 570.429,856.952 612.5,969.5C 584.175,970.5 555.841,970.833 527.5,970.5C 519.5,946.167 511.5,921.833 503.5,897.5C 463.832,897.333 424.165,897.5 384.5,898C 376.073,921.779 367.74,945.612 359.5,969.5C 332.506,970.667 305.506,970.833 278.5,970C 321.268,857.194 363.935,744.36 406.5,631.5 Z M 446.5,729.5 C 459.405,764.879 471.739,800.546 483.5,836.5C 458.164,836.667 432.831,836.5 407.5,836C 420.405,800.45 433.405,764.95 446.5,729.5 Z"/></g>
<g><path style="opacity:0.99" fill="#000000" d="M 629.5,631.5 C 656.167,631.5 682.833,631.5 709.5,631.5C 709.5,744.5 709.5,857.5 709.5,970.5C 682.833,970.5 656.167,970.5 629.5,970.5C 629.5,857.5 629.5,744.5 629.5,631.5 Z"/></g>
<g><path style="opacity:0.991" fill="#000000" d="M 757.5,631.5 C 783.835,631.333 810.169,631.5 836.5,632C 881.709,704.249 926.543,776.749 971,849.5C 971.5,776.834 971.667,704.167 971.5,631.5C 1086.17,631.5 1200.83,631.5 1315.5,631.5C 1315.5,654.5 1315.5,677.5 1315.5,700.5C 1281.83,700.5 1248.17,700.5 1214.5,700.5C 1214.5,790.5 1214.5,880.5 1214.5,970.5C 1187.83,970.5 1161.17,970.5 1134.5,970.5C 1134.5,880.5 1134.5,790.5 1134.5,700.5C 1104.83,700.5 1075.17,700.5 1045.5,700.5C 1045.5,790.5 1045.5,880.5 1045.5,970.5C 1019.16,970.667 992.831,970.5 966.5,970C 922.208,899.251 878.041,828.417 834,757.5C 833.5,828.499 833.333,899.499 833.5,970.5C 808.167,970.5 782.833,970.5 757.5,970.5C 757.5,857.5 757.5,744.5 757.5,631.5 Z"/></g>
<g><path style="opacity:0.993" fill="#000000" d="M 1457.5,631.5 C 1484.17,631.5 1510.83,631.5 1537.5,631.5C 1537.5,722.167 1537.5,812.833 1537.5,903.5C 1591.83,903.5 1646.17,903.5 1700.5,903.5C 1700.5,925.833 1700.5,948.167 1700.5,970.5C 1619.5,970.5 1538.5,970.5 1457.5,970.5C 1457.5,857.5 1457.5,744.5 1457.5,631.5 Z"/></g>
<g><path style="opacity:0.991" fill="#000000" d="M 1839.5,631.5 C 1866.5,631.5 1893.5,631.5 1920.5,631.5C 1961.1,744.284 2002.1,856.951 2043.5,969.5C 2015.84,970.5 1988.17,970.833 1960.5,970.5C 1952.5,946.167 1944.5,921.833 1936.5,897.5C 1896.83,897.333 1857.17,897.5 1817.5,898C 1809.07,921.779 1800.74,945.612 1792.5,969.5C 1765.51,970.667 1738.51,970.833 1711.5,970C 1754.27,857.199 1796.93,744.365 1839.5,631.5 Z M 1879.5,729.5 C 1892.41,764.879 1904.74,800.546 1916.5,836.5C 1891.16,836.667 1865.83,836.5 1840.5,836C 1853.41,800.45 1866.41,764.95 1879.5,729.5 Z"/></g>
<g><path style="opacity:0.99" fill="#000000" d="M 2050.5,631.5 C 2076.5,631.5 2102.5,631.5 2128.5,631.5C 2128.33,706.834 2128.5,782.167 2129,857.5C 2130.96,886.116 2145.8,903.616 2173.5,910C 2187.5,912 2201.5,912 2215.5,910C 2243.13,904.688 2257.63,887.855 2259,859.5C 2259.5,783.501 2259.67,707.501 2259.5,631.5C 2286.17,631.5 2312.83,631.5 2339.5,631.5C 2339.67,707.834 2339.5,784.167 2339,860.5C 2332.28,927.891 2295.44,966.724 2228.5,977C 2192.16,982.258 2156.49,978.591 2121.5,966C 2082.84,947.985 2060.01,917.818 2053,875.5C 2052.33,870.167 2051.67,864.833 2051,859.5C 2050.5,783.501 2050.33,707.501 2050.5,631.5 Z"/></g>
<g><path style="opacity:0.991" fill="#000000" d="M 2385.5,631.5 C 2451.5,631.333 2517.5,631.5 2583.5,632C 2623.58,637.113 2651.08,658.279 2666,695.5C 2673.03,721.293 2671.7,746.627 2662,771.5C 2653.17,788.333 2640.33,801.167 2623.5,810C 2639.79,817.62 2651.29,829.786 2658,846.5C 2661.15,855.293 2663.49,864.293 2665,873.5C 2666.93,895.879 2669.26,918.212 2672,940.5C 2673.59,951.109 2677.42,960.776 2683.5,969.5C 2656.27,970.828 2629.1,970.828 2602,969.5C 2598.66,962.491 2596.33,955.158 2595,947.5C 2592.84,931.222 2591.17,914.888 2590,898.5C 2589.14,884.377 2585.47,871.043 2579,858.5C 2573.31,850.157 2565.48,844.99 2555.5,843C 2548.97,842.048 2542.47,841.215 2536,840.5C 2512.67,841.833 2489.33,841.833 2466,840.5C 2465.5,883.832 2465.33,927.165 2465.5,970.5C 2438.83,970.5 2412.17,970.5 2385.5,970.5C 2385.5,857.5 2385.5,744.5 2385.5,631.5 Z M 2467.5,694.5 C 2496.84,694.333 2526.17,694.5 2555.5,695C 2580.09,698.43 2591.76,712.597 2590.5,737.5C 2592.19,762.335 2580.85,776.835 2556.5,781C 2526.84,781.5 2497.17,781.667 2467.5,781.5C 2467.5,752.5 2467.5,723.5 2467.5,694.5 Z"/></g>
<g><path style="opacity:0.994" fill="#000000" d="M 2716.5,631.5 C 2801.83,631.5 2887.17,631.5 2972.5,631.5C 2972.5,654.5 2972.5,677.5 2972.5,700.5C 2913.83,700.5 2855.17,700.5 2796.5,700.5C 2796.5,722.167 2796.5,743.833 2796.5,765.5C 2850.17,765.5 2903.83,765.5 2957.5,765.5C 2957.5,786.5 2957.5,807.5 2957.5,828.5C 2903.83,828.5 2850.17,828.5 2796.5,828.5C 2796.5,853.5 2796.5,878.5 2796.5,903.5C 2856.5,903.5 2916.5,903.5 2976.5,903.5C 2976.5,925.833 2976.5,948.167 2976.5,970.5C 2889.83,970.5 2803.17,970.5 2716.5,970.5C 2716.5,857.5 2716.5,744.5 2716.5,631.5 Z"/></g>
<g><path style="opacity:0.991" fill="#000000" d="M 3569.5,631.5 C 3569.5,654.5 3569.5,677.5 3569.5,700.5C 3536.83,700.5 3504.17,700.5 3471.5,700.5C 3471.5,790.5 3471.5,880.5 3471.5,970.5C 3444.83,970.5 3418.17,970.5 3391.5,970.5C 3391.5,880.5 3391.5,790.5 3391.5,700.5C 3361.5,700.5 3331.5,700.5 3301.5,700.5C 3301.5,790.5 3301.5,880.5 3301.5,970.5C 3274.93,970.828 3248.43,970.495 3222,969.5C 3177.58,897.665 3132.92,825.999 3088,754.5C 3087.5,826.499 3087.33,898.499 3087.5,970.5C 3062.17,970.5 3036.83,970.5 3011.5,970.5C 3011.5,857.5 3011.5,744.5 3011.5,631.5C 3038.17,631.167 3064.84,631.5 3091.5,632.5C 3136,704.833 3180.5,777.167 3225,849.5C 3225.5,776.834 3225.67,704.167 3225.5,631.5C 3340.17,631.5 3454.83,631.5 3569.5,631.5 Z"/></g>
<g><path style="opacity:0.988" fill="#000000" d="M 1105.5,1163.5 C 1159.53,1163.03 1213.53,1163.53 1267.5,1165C 1282.61,1167.56 1296.61,1172.89 1309.5,1181C 1319.94,1189.71 1325.77,1200.88 1327,1214.5C 1333.09,1251.87 1318.25,1276.04 1282.5,1287C 1274.29,1289.09 1265.96,1290.42 1257.5,1291C 1228.5,1291.5 1199.5,1291.67 1170.5,1291.5C 1170.33,1313.5 1170.5,1335.5 1171,1357.5C 1174.75,1359.92 1178.92,1360.92 1183.5,1360.5C 1183.5,1364.83 1183.5,1369.17 1183.5,1373.5C 1157.5,1373.5 1131.5,1373.5 1105.5,1373.5C 1105.5,1369.17 1105.5,1364.83 1105.5,1360.5C 1110.68,1360.72 1115.51,1359.72 1120,1357.5C 1120.67,1297.83 1120.67,1238.17 1120,1178.5C 1119.25,1177.87 1118.42,1177.37 1117.5,1177C 1113.51,1176.5 1109.51,1176.33 1105.5,1176.5C 1105.5,1172.17 1105.5,1167.83 1105.5,1163.5 Z M 1170.5,1205.5 C 1201.54,1205.05 1232.54,1205.55 1263.5,1207C 1273.78,1209.53 1278.45,1216.19 1277.5,1227C 1278.66,1237.64 1274.33,1244.64 1264.5,1248C 1233.2,1249.45 1201.87,1249.95 1170.5,1249.5C 1170.5,1234.83 1170.5,1220.17 1170.5,1205.5 Z"/></g>
<g><path style="opacity:0.985" fill="#000000" d="M 1727.5,1163.5 C 1777.17,1163.33 1826.83,1163.5 1876.5,1164C 1895.57,1165.24 1912.9,1171.24 1928.5,1182C 1946.58,1200.04 1952.42,1221.54 1946,1246.5C 1940.73,1263.21 1930.23,1275.38 1914.5,1283C 1908.5,1285 1902.5,1287 1896.5,1289C 1913.34,1313.02 1930.68,1336.69 1948.5,1360C 1951.82,1360.5 1955.15,1360.67 1958.5,1360.5C 1958.5,1364.83 1958.5,1369.17 1958.5,1373.5C 1931.83,1373.5 1905.17,1373.5 1878.5,1373.5C 1878.5,1369.17 1878.5,1364.83 1878.5,1360.5C 1886.14,1360.64 1887.97,1357.64 1884,1351.5C 1869.38,1331.09 1854.88,1310.59 1840.5,1290C 1823.84,1289.5 1807.17,1289.33 1790.5,1289.5C 1790.33,1312.17 1790.5,1334.84 1791,1357.5C 1793.9,1360.23 1797.4,1361.23 1801.5,1360.5C 1801.5,1364.83 1801.5,1369.17 1801.5,1373.5C 1776.83,1373.5 1752.17,1373.5 1727.5,1373.5C 1727.5,1369.17 1727.5,1364.83 1727.5,1360.5C 1731.39,1360.65 1734.89,1359.65 1738,1357.5C 1738.67,1297.83 1738.67,1238.17 1738,1178.5C 1734.85,1176.64 1731.35,1175.97 1727.5,1176.5C 1727.5,1172.17 1727.5,1167.83 1727.5,1163.5 Z M 1790.5,1205.5 C 1818.54,1205.05 1846.54,1205.55 1874.5,1207C 1883.26,1208.96 1890.76,1213.13 1897,1219.5C 1901.18,1228.47 1900.02,1236.64 1893.5,1244C 1887.89,1248.64 1881.56,1251.97 1874.5,1254C 1846.53,1255.44 1818.53,1255.94 1790.5,1255.5C 1790.5,1238.83 1790.5,1222.17 1790.5,1205.5 Z"/></g>
<g><path style="opacity:0.98" fill="#000000" d="M 1489.5,1165.5 C 1501.85,1165.17 1514.18,1165.5 1526.5,1166.5C 1558.02,1228.86 1589.52,1291.2 1621,1353.5C 1622.74,1355.32 1624.24,1357.32 1625.5,1359.5C 1628.37,1360.18 1630.87,1361.52 1633,1363.5C 1633.5,1367.49 1633.67,1371.49 1633.5,1375.5C 1608.5,1375.67 1583.5,1375.5 1558.5,1375C 1557.54,1370.93 1557.2,1366.77 1557.5,1362.5C 1562.48,1362.62 1564.65,1360.29 1564,1355.5C 1559.51,1344.36 1554.35,1333.52 1548.5,1323C 1518.5,1322.33 1488.5,1322.33 1458.5,1323C 1451.34,1334.49 1445.67,1346.66 1441.5,1359.5C 1444.13,1360.09 1446.79,1360.42 1449.5,1360.5C 1449.5,1364.83 1449.5,1369.17 1449.5,1373.5C 1428.5,1373.5 1407.5,1373.5 1386.5,1373.5C 1386.5,1369.17 1386.5,1364.83 1386.5,1360.5C 1388.93,1360.48 1391.26,1359.98 1393.5,1359C 1395.33,1356.5 1397.17,1354 1399,1351.5C 1429.45,1289.6 1459.62,1227.6 1489.5,1165.5 Z M 1501.5,1227.5 C 1502.75,1227.58 1503.58,1228.24 1504,1229.5C 1512.56,1248.95 1521.39,1268.29 1530.5,1287.5C 1511.18,1288.67 1491.84,1288.83 1472.5,1288C 1482.58,1268 1492.25,1247.83 1501.5,1227.5 Z"/></g>
<g><path style="opacity:0.977" fill="#000000" d="M 2067.5,1165.5 C 2091.17,1165.5 2114.83,1165.5 2138.5,1165.5C 2138.5,1169.83 2138.5,1174.17 2138.5,1178.5C 2135.42,1178.26 2132.42,1178.59 2129.5,1179.5C 2128.33,1239.16 2128.17,1298.83 2129,1358.5C 2132,1359.87 2135.16,1360.53 2138.5,1360.5C 2138.5,1364.83 2138.5,1369.17 2138.5,1373.5C 2114.83,1373.5 2091.17,1373.5 2067.5,1373.5C 2067.5,1369.17 2067.5,1364.83 2067.5,1360.5C 2070.78,1360.28 2073.95,1359.61 2077,1358.5C 2077.67,1299.17 2077.67,1239.83 2077,1180.5C 2074.17,1178.66 2071.01,1177.99 2067.5,1178.5C 2067.5,1174.17 2067.5,1169.83 2067.5,1165.5 Z"/></g>
<g><path style="opacity:0.983" fill="#000000" d="M 2333.5,1167.5 C 2366.76,1164.99 2398.76,1170.15 2429.5,1183C 2435.82,1185.46 2441.82,1184.96 2447.5,1181.5C 2450.5,1183 2453.5,1184.5 2456.5,1186C 2449.13,1199.91 2441.63,1213.75 2434,1227.5C 2417.23,1219.7 2400.07,1212.87 2382.5,1207C 2357.61,1201.26 2333.28,1202.92 2309.5,1212C 2303.02,1216.08 2300.86,1221.92 2303,1229.5C 2303.67,1230.83 2304.33,1232.17 2305,1233.5C 2310.25,1236.25 2315.75,1238.42 2321.5,1240C 2345.13,1242.39 2368.8,1244.39 2392.5,1246C 2408.18,1246.96 2422.85,1251.29 2436.5,1259C 2440.24,1260.74 2443.41,1263.24 2446,1266.5C 2467.14,1315.4 2452.97,1349.9 2403.5,1370C 2396.61,1372.14 2389.61,1373.8 2382.5,1375C 2357.5,1375.67 2332.5,1375.67 2307.5,1375C 2291.66,1371.88 2276.33,1367.21 2261.5,1361C 2258.34,1360.4 2255.34,1360.9 2252.5,1362.5C 2248.8,1361.43 2245.14,1360.27 2241.5,1359C 2249.8,1341.58 2257.96,1324.08 2266,1306.5C 2268.42,1307.96 2270.92,1309.29 2273.5,1310.5C 2274.32,1315.83 2276.99,1319.99 2281.5,1323C 2311.22,1340.08 2342.89,1345.41 2376.5,1339C 2387.33,1337.01 2396.16,1331.84 2403,1323.5C 2406.65,1313.77 2403.48,1307.6 2393.5,1305C 2390.5,1304 2387.5,1303 2384.5,1302C 2364.84,1300.29 2345.17,1298.63 2325.5,1297C 2308.58,1295.88 2292.25,1292.22 2276.5,1286C 2260.35,1277.9 2251.52,1264.73 2250,1246.5C 2248.71,1211.46 2264.54,1187.96 2297.5,1176C 2309.29,1171.68 2321.29,1168.85 2333.5,1167.5 Z"/></g>
</svg>
